<svg width="360" height="640" viewBox="0 0 360 640" fill="none" xmlns="http://www.w3.org/2000/svg">
<rect width="360" height="640" fill="#F57D31"/>
<g opacity="0.1">
<path d="M272.762 112C272.762 125.676 261.676 136.762 248 136.762C234.324 136.762 223.238 125.676 223.238 112C223.238 98.3244 234.324 87.2381 248 87.2381C261.676 87.2381 272.762 98.3244 272.762 112Z" fill="white"/>
<path fill-rule="evenodd" clip-rule="evenodd" d="M248 216C300.393 216 343.738 177.257 350.947 126.857H290.035C283.917 144.169 267.407 156.571 248 156.571C228.593 156.571 212.084 144.169 205.965 126.857H145.053C152.262 177.257 195.607 216 248 216ZM205.965 97.1429H145.053C152.262 46.7431 195.607 8 248 8C300.393 8 343.738 46.7431 350.947 97.1429H290.035C283.917 79.8314 267.407 67.4286 248 67.4286C228.593 67.4286 212.084 79.8314 205.965 97.1429ZM272.762 112C272.762 125.676 261.676 136.762 248 136.762C234.324 136.762 223.238 125.676 223.238 112C223.238 98.3244 234.324 87.2381 248 87.2381C261.676 87.2381 272.762 98.3244 272.762 112Z" fill="white"/>
</g>
</svg>
